<svg width="207" height="26" viewBox="0 0 207 26" fill="none" xmlns="http://www.w3.org/2000/svg">
<g clip-path="url(#clip0_13_9)">
<rect x="9" width="17" height="17" fill="#619B27"/>
<rect width="8" height="26" fill="#619B27"/>
<rect x="9" y="18" width="17" height="8" fill="#9D2727"/>
<path d="M40.7727 20H34.321V2.54545H40.7642C42.5426 2.54545 44.0739 2.89489 45.358 3.59375C46.6477 4.28693 47.642 5.28693 48.3409 6.59375C49.0398 7.89489 49.3892 9.4517 49.3892 11.2642C49.3892 13.0824 49.0398 14.6449 48.3409 15.9517C47.6477 17.2585 46.6562 18.2614 45.3665 18.9602C44.0767 19.6534 42.5455 20 40.7727 20ZM38.5398 16.4034H40.6108C41.5881 16.4034 42.4148 16.2386 43.0909 15.9091C43.7727 15.5739 44.2869 15.0312 44.6335 14.2812C44.9858 13.5256 45.1619 12.5199 45.1619 11.2642C45.1619 10.0085 44.9858 9.00852 44.6335 8.2642C44.2813 7.5142 43.7614 6.97443 43.0739 6.64489C42.392 6.30966 41.5511 6.14204 40.5511 6.14204H38.5398V16.4034ZM57.9716 20.2472C56.6023 20.2472 55.4205 19.9773 54.4261 19.4375C53.4375 18.892 52.6761 18.1165 52.142 17.1108C51.6136 16.0994 51.3494 14.8977 51.3494 13.5057C51.3494 12.1534 51.6165 10.9716 52.1506 9.96023C52.6847 8.94318 53.4375 8.15341 54.4091 7.59091C55.3807 7.02273 56.5256 6.73864 57.8438 6.73864C58.7756 6.73864 59.6278 6.88352 60.4006 7.17329C61.1733 7.46307 61.8409 7.89205 62.4034 8.46023C62.9659 9.02841 63.4034 9.73011 63.7159 10.5653C64.0284 11.3949 64.1847 12.3466 64.1847 13.4205V14.4602H52.8068V12.0398H60.3068C60.3011 11.5966 60.196 11.2017 59.9915 10.8551C59.7869 10.5085 59.5057 10.2386 59.1477 10.0455C58.7955 9.84659 58.3892 9.74716 57.929 9.74716C57.4631 9.74716 57.0455 9.85227 56.6761 10.0625C56.3068 10.267 56.0142 10.5483 55.7983 10.9062C55.5824 11.2585 55.4688 11.6591 55.4574 12.108V14.571C55.4574 15.1051 55.5625 15.5739 55.7727 15.9773C55.983 16.375 56.2812 16.6847 56.6676 16.9062C57.054 17.1278 57.5142 17.2386 58.0483 17.2386C58.4176 17.2386 58.7528 17.1875 59.054 17.0852C59.3551 16.983 59.6136 16.8324 59.8295 16.6335C60.0455 16.4347 60.2074 16.1903 60.3153 15.9006L64.142 16.0114C63.983 16.8693 63.6335 17.6165 63.0938 18.2528C62.5597 18.8835 61.858 19.375 60.9886 19.7273C60.1193 20.0739 59.1136 20.2472 57.9716 20.2472ZM77.7422 10.9062L73.9155 11.0085C73.8757 10.7358 73.7678 10.4943 73.5916 10.2841C73.4155 10.0682 73.1854 9.90057 72.9013 9.78125C72.6229 9.65625 72.299 9.59375 71.9297 9.59375C71.4467 9.59375 71.0348 9.69034 70.6939 9.88352C70.3587 10.0767 70.1939 10.3381 70.1996 10.6676C70.1939 10.9233 70.2962 11.1449 70.5064 11.3324C70.7223 11.5199 71.1058 11.6705 71.657 11.7841L74.1797 12.2614C75.4865 12.5114 76.4581 12.9261 77.0945 13.5057C77.7365 14.0852 78.0604 14.8523 78.0661 15.8068C78.0604 16.7045 77.7933 17.4858 77.2649 18.1506C76.7422 18.8153 76.0263 19.3324 75.1172 19.7017C74.2081 20.0653 73.1683 20.2472 71.9979 20.2472C70.1286 20.2472 68.6541 19.8636 67.5746 19.0966C66.5007 18.3239 65.8871 17.2898 65.7337 15.9943L69.8501 15.892C69.9411 16.3693 70.1768 16.733 70.5575 16.983C70.9382 17.233 71.424 17.358 72.0149 17.358C72.549 17.358 72.9837 17.2585 73.3189 17.0597C73.6541 16.8608 73.8246 16.5966 73.8303 16.267C73.8246 15.9716 73.6939 15.7358 73.4382 15.5597C73.1825 15.3778 72.782 15.2358 72.2365 15.1335L69.9524 14.6989C68.6399 14.4602 67.6626 14.0199 67.0206 13.3778C66.3786 12.7301 66.0604 11.9062 66.0661 10.9062C66.0604 10.0312 66.2933 9.28409 66.7649 8.66477C67.2365 8.03977 67.907 7.5625 68.7763 7.23295C69.6456 6.90341 70.6712 6.73864 71.853 6.73864C73.6257 6.73864 75.0234 7.1108 76.0462 7.85511C77.0689 8.59375 77.6342 9.6108 77.7422 10.9062ZM80.1179 20V6.90909H84.2855V20H80.1179ZM82.206 5.38352C81.6207 5.38352 81.1179 5.19034 80.6974 4.80398C80.277 4.41193 80.0668 3.94034 80.0668 3.3892C80.0668 2.84375 80.277 2.37784 80.6974 1.99148C81.1179 1.59943 81.6207 1.40341 82.206 1.40341C82.7969 1.40341 83.2997 1.59943 83.7145 1.99148C84.1349 2.37784 84.3452 2.84375 84.3452 3.3892C84.3452 3.94034 84.1349 4.41193 83.7145 4.80398C83.2997 5.19034 82.7969 5.38352 82.206 5.38352ZM93.0405 25.1818C91.7962 25.1818 90.7308 25.0085 89.8445 24.6619C88.9581 24.3153 88.2621 23.8409 87.7564 23.2386C87.2507 22.6364 86.9467 21.9545 86.8445 21.1932L90.7905 20.9716C90.8643 21.2386 91.0007 21.4716 91.1996 21.6705C91.4041 21.8693 91.6683 22.0227 91.9922 22.1307C92.3217 22.2386 92.7081 22.2926 93.1513 22.2926C93.8501 22.2926 94.4268 22.1222 94.8814 21.7812C95.3416 21.446 95.5717 20.858 95.5717 20.017V17.7159H95.4268C95.2621 18.1193 95.0121 18.4801 94.6768 18.7983C94.3416 19.1165 93.924 19.3665 93.424 19.5483C92.9297 19.7301 92.3615 19.821 91.7195 19.821C90.7649 19.821 89.8899 19.5994 89.0945 19.1562C88.3047 18.7074 87.6712 18.0142 87.1939 17.0767C86.7223 16.1335 86.4865 14.9205 86.4865 13.4375C86.4865 11.9091 86.7308 10.6506 87.2195 9.66193C87.7081 8.66761 88.3473 7.93182 89.1371 7.45454C89.9325 6.97727 90.7876 6.73864 91.7024 6.73864C92.3899 6.73864 92.978 6.85795 93.4666 7.09659C93.9609 7.32955 94.3672 7.63068 94.6854 8C95.0036 8.36932 95.245 8.75284 95.4098 9.15057H95.5291V6.90909H99.6797V20.0511C99.6797 21.1591 99.4013 22.0938 98.8445 22.8551C98.2876 23.6165 97.5092 24.1932 96.5092 24.5852C95.5092 24.983 94.353 25.1818 93.0405 25.1818ZM93.1683 16.7869C93.674 16.7869 94.1058 16.6534 94.4638 16.3864C94.8217 16.1193 95.0973 15.7358 95.2905 15.2358C95.4837 14.7358 95.5803 14.1364 95.5803 13.4375C95.5803 12.7273 95.4837 12.1165 95.2905 11.6051C95.103 11.0881 94.8274 10.6903 94.4638 10.4119C94.1058 10.1335 93.674 9.99432 93.1683 9.99432C92.6513 9.99432 92.2138 10.1364 91.8558 10.4205C91.4979 10.7045 91.2251 11.1051 91.0376 11.6222C90.8558 12.1335 90.7649 12.7386 90.7649 13.4375C90.7649 14.1364 90.8587 14.7358 91.0462 15.2358C91.2337 15.7358 91.5036 16.1193 91.8558 16.3864C92.2138 16.6534 92.6513 16.7869 93.1683 16.7869ZM106.504 12.5341V20H102.337V6.90909H106.3V9.3125H106.445C106.734 8.51136 107.229 7.88352 107.928 7.42898C108.626 6.96875 109.459 6.73864 110.425 6.73864C111.345 6.73864 112.143 6.94602 112.82 7.36079C113.501 7.76989 114.03 8.34375 114.405 9.08239C114.786 9.81534 114.973 10.6733 114.967 11.6562V20H110.8V12.4744C110.805 11.7472 110.621 11.179 110.246 10.7699C109.876 10.3608 109.362 10.1562 108.703 10.1562C108.266 10.1562 107.879 10.2528 107.544 10.446C107.214 10.6335 106.959 10.9034 106.777 11.2557C106.601 11.608 106.51 12.0341 106.504 12.5341ZM122.704 20V2.54545H129.914C131.221 2.54545 132.349 2.78125 133.298 3.25284C134.252 3.71875 134.988 4.3892 135.505 5.2642C136.022 6.13352 136.281 7.16477 136.281 8.35795C136.281 9.56818 136.016 10.5966 135.488 11.4432C134.96 12.2841 134.21 12.9261 133.238 13.3693C132.266 13.8068 131.116 14.0256 129.786 14.0256H125.227V10.7017H129.002C129.638 10.7017 130.17 10.6193 130.596 10.4545C131.028 10.2841 131.354 10.0284 131.576 9.6875C131.798 9.34091 131.908 8.89773 131.908 8.35795C131.908 7.81818 131.798 7.37216 131.576 7.01989C131.354 6.66193 131.028 6.39489 130.596 6.21875C130.164 6.03693 129.633 5.94602 129.002 5.94602H126.923V20H122.704ZM132.531 12.0227L136.877 20H132.275L128.013 12.0227H132.531ZM144.456 20.2472C143.087 20.2472 141.905 19.9773 140.911 19.4375C139.922 18.892 139.161 18.1165 138.626 17.1108C138.098 16.0994 137.834 14.8977 137.834 13.5057C137.834 12.1534 138.101 10.9716 138.635 9.96023C139.169 8.94318 139.922 8.15341 140.893 7.59091C141.865 7.02273 143.01 6.73864 144.328 6.73864C145.26 6.73864 146.112 6.88352 146.885 7.17329C147.658 7.46307 148.325 7.89205 148.888 8.46023C149.45 9.02841 149.888 9.73011 150.2 10.5653C150.513 11.3949 150.669 12.3466 150.669 13.4205V14.4602H139.291V12.0398H146.791C146.786 11.5966 146.68 11.2017 146.476 10.8551C146.271 10.5085 145.99 10.2386 145.632 10.0455C145.28 9.84659 144.874 9.74716 144.413 9.74716C143.947 9.74716 143.53 9.85227 143.161 10.0625C142.791 10.267 142.499 10.5483 142.283 10.9062C142.067 11.2585 141.953 11.6591 141.942 12.108V14.571C141.942 15.1051 142.047 15.5739 142.257 15.9773C142.467 16.375 142.766 16.6847 143.152 16.9062C143.538 17.1278 143.999 17.2386 144.533 17.2386C144.902 17.2386 145.237 17.1875 145.538 17.0852C145.839 16.983 146.098 16.8324 146.314 16.6335C146.53 16.4347 146.692 16.1903 146.8 15.9006L150.626 16.0114C150.467 16.8693 150.118 17.6165 149.578 18.2528C149.044 18.8835 148.342 19.375 147.473 19.7273C146.604 20.0739 145.598 20.2472 144.456 20.2472ZM160.238 6.90909V9.97727H151.817V6.90909H160.238ZM153.573 20V6.24432C153.573 5.23295 153.763 4.39489 154.144 3.73011C154.525 3.05966 155.053 2.55966 155.729 2.23011C156.406 1.89489 157.187 1.72727 158.073 1.72727C158.653 1.72727 159.198 1.77273 159.71 1.86364C160.227 1.94886 160.61 2.02557 160.86 2.09375L160.195 5.14489C160.042 5.09375 159.854 5.05114 159.633 5.01704C159.417 4.98295 159.212 4.96591 159.019 4.96591C158.531 4.96591 158.195 5.07386 158.013 5.28977C157.832 5.50568 157.741 5.80114 157.741 6.17614V20H153.573ZM167.932 20.2472C166.557 20.2472 165.375 19.9659 164.386 19.4034C163.403 18.8352 162.645 18.0455 162.111 17.0341C161.582 16.017 161.318 14.8381 161.318 13.4972C161.318 12.1506 161.582 10.9716 162.111 9.96023C162.645 8.94318 163.403 8.15341 164.386 7.59091C165.375 7.02273 166.557 6.73864 167.932 6.73864C169.307 6.73864 170.486 7.02273 171.469 7.59091C172.457 8.15341 173.216 8.94318 173.744 9.96023C174.278 10.9716 174.545 12.1506 174.545 13.4972C174.545 14.8381 174.278 16.017 173.744 17.0341C173.216 18.0455 172.457 18.8352 171.469 19.4034C170.486 19.9659 169.307 20.2472 167.932 20.2472ZM167.957 17.1023C168.457 17.1023 168.881 16.9489 169.227 16.642C169.574 16.3352 169.838 15.9091 170.02 15.3636C170.207 14.8182 170.301 14.1875 170.301 13.4716C170.301 12.7443 170.207 12.108 170.02 11.5625C169.838 11.017 169.574 10.5909 169.227 10.2841C168.881 9.97727 168.457 9.82386 167.957 9.82386C167.44 9.82386 167.003 9.97727 166.645 10.2841C166.293 10.5909 166.023 11.017 165.835 11.5625C165.653 12.108 165.562 12.7443 165.562 13.4716C165.562 14.1875 165.653 14.8182 165.835 15.3636C166.023 15.9091 166.293 16.3352 166.645 16.642C167.003 16.9489 167.44 17.1023 167.957 17.1023ZM176.68 20V6.90909H180.729V9.29545H180.865C181.104 8.43182 181.493 7.78977 182.033 7.36932C182.572 6.94318 183.2 6.73011 183.916 6.73011C184.109 6.73011 184.308 6.74432 184.513 6.77273C184.717 6.79545 184.908 6.83239 185.084 6.88352V10.5057C184.885 10.4375 184.624 10.3835 184.3 10.3438C183.982 10.304 183.697 10.2841 183.447 10.2841C182.953 10.2841 182.507 10.3949 182.109 10.6165C181.717 10.8324 181.408 11.1364 181.18 11.5284C180.959 11.9148 180.848 12.3693 180.848 12.892V20H176.68ZM186.782 20V6.90909H190.745V9.3125H190.89C191.163 8.51705 191.623 7.8892 192.271 7.42898C192.918 6.96875 193.691 6.73864 194.589 6.73864C195.498 6.73864 196.276 6.97159 196.924 7.4375C197.572 7.90341 197.984 8.52841 198.16 9.3125H198.296C198.54 8.53409 199.018 7.91193 199.728 7.44602C200.438 6.97443 201.276 6.73864 202.242 6.73864C203.481 6.73864 204.487 7.13636 205.259 7.93182C206.032 8.72159 206.418 9.80682 206.418 11.1875V20H202.251V12.142C202.251 11.4886 202.083 10.9915 201.748 10.6506C201.413 10.304 200.978 10.1307 200.444 10.1307C199.87 10.1307 199.418 10.3182 199.089 10.6932C198.765 11.0625 198.603 11.5597 198.603 12.1847V20H194.597V12.0994C194.597 11.4915 194.433 11.0114 194.103 10.6591C193.773 10.3068 193.339 10.1307 192.799 10.1307C192.435 10.1307 192.114 10.2187 191.836 10.3949C191.558 10.5653 191.339 10.8097 191.18 11.1278C191.026 11.446 190.95 11.821 190.95 12.2528V20H186.782Z" fill="#424242"/>
</g>
<defs>
<clipPath id="clip0_13_9">
<rect width="207" height="26" fill="white"/>
</clipPath>
</defs>
</svg>
